/vscmnt/brussel_pixiu_data/_data_brussel/112/vsc11236/PredSimResults/SUBJ11mtu3D/worker5.mot
version=1
nRows=6
nColumns=50
inDegrees=yes
endheader
                time	         pelvis_tilt	         pelvis_list	     pelvis_rotation	           pelvis_tx	           pelvis_ty	           pelvis_tz	       hip_flexion_r	     hip_adduction_r	      hip_rotation_r	        knee_angle_r	       ankle_angle_r	         mtp_angle_r	       hip_flexion_l	     hip_adduction_l	      hip_rotation_l	        knee_angle_l	       ankle_angle_l	         mtp_angle_l	    lumbar_extension	      lumbar_bending	     lumbar_rotation	 ercspn_r/activation	 intobl_r/activation	 extobl_r/activation	    abd_r/activation	    add_r/activation	hamstrings_r/activation	bifemsh_r/activation	glut_max_r/activation	iliopsoas_r/activation	rect_fem_r/activation	  vasti_r/activation	gastroc_r/activation	 soleus_r/activation	tib_ant_r/activation	 ercspn_l/activation	 intobl_l/activation	 extobl_l/activation	    abd_l/activation	    add_l/activation	hamstrings_l/activation	bifemsh_l/activation	glut_max_l/activation	iliopsoas_l/activation	rect_fem_l/activation	  vasti_l/activation	gastroc_l/activation	 soleus_l/activation	tib_ant_l/activation	
          1.30625114	         -3.48864832	         -0.66331419	          5.03184417	          1.43687626	          0.94298664	         -0.00633801	         31.31792699	         -2.12386217	         -4.16741388	        -10.49891617	          2.76595966	          0.25701454	        -13.27960022	         -2.40179151	         -2.50839380	        -11.62235897	         11.98922879	         28.74587607	        -14.12022876	         -1.61531032	         -4.20754345	          0.02879444	          0.19973050	          0.05200216	          0.01000198	          0.18594667	          0.03514397	          0.10521084	          0.08215468	          0.08273000	          0.03976867	          0.01444822	          0.01000501	          0.01000148	          0.40292734	          0.01644879	          0.01000734	          0.01000530	          0.03803966	          0.01919040	          0.01275294	          0.17808545	          0.02201525	          0.01760864	          0.01211500	          0.01001045	          0.12562050	          0.29030013	          0.01227179	
          1.31931365	         -3.58340199	         -0.71849385	          5.10856048	          1.45510337	          0.94100940	         -0.00522778	         30.96294399	         -1.96758936	         -4.23324226	        -11.58147188	          2.30697307	          0.21051601	        -13.87262382	         -2.63796050	         -2.82880731	        -12.32238787	         11.20833101	         30.48390827	        -13.65448615	         -1.14512681	         -4.44335533	          0.02366093	          0.16402400	          0.04270525	          0.05120585	          0.17709494	          0.04932157	          0.08641041	          0.10195115	          0.06793938	          0.03266110	          0.01186743	          0.01220118	          0.01218077	          0.44337185	          0.02448794	          0.01000366	          0.01001488	          0.03123910	          0.01576893	          0.01902516	          0.14625173	          0.01808515	          0.01450414	          0.01001585	          0.01000803	          0.10316287	          0.26994891	          0.01007841	
          1.33237617	         -3.66137299	         -0.76920983	          5.16165309	          1.47354741	          0.93939080	         -0.00404377	         30.59820619	         -1.83175705	         -4.32666714	        -12.69711885	          1.73062126	          0.20604585	        -14.29739143	         -2.88195125	         -3.15899123	        -13.34641051	         10.27847434	         32.28888685	        -13.17361024	         -0.67794465	         -4.66515038	          0.02916830	          0.13469968	          0.03507048	          0.09969508	          0.22209199	          0.04053076	          0.07096994	          0.11844862	          0.05579319	          0.02682409	          0.01385692	          0.01002171	          0.01000391	          0.50458488	          0.03526400	          0.01000302	          0.01000755	          0.02565433	          0.01296429	          0.01590050	          0.12010808	          0.01485853	          0.01194067	          0.01004778	          0.01006787	          0.08471945	          0.24619181	          0.01000167	
          1.34543868	         -3.72243551	         -0.80917053	          5.18922815	          1.49194832	          0.93830327	         -0.00278777	         30.33612824	         -1.71620156	         -4.46425956	        -13.97455832	          1.04098595	          0.16719731	        -14.45023008	         -3.13080178	         -3.49546664	        -14.84043434	          9.18343241	         34.15192781	        -12.70936692	         -0.22197793	         -4.86868757	          0.03176445	          0.11061798	          0.02880072	          0.12234428	          0.27231494	          0.04220889	          0.05829105	          0.10843166	          0.04581854	          0.02203054	          0.06805198	          0.01000534	          0.01000223	          0.55647128	          0.05920943	          0.01000431	          0.01000530	          0.02106799	          0.07615507	          0.02542914	          0.09863858	          0.01220984	          0.01006238	          0.01002170	          0.01005187	          0.06957324	          0.21550449	          0.01000187	
          1.35850119	         -3.76655887	         -0.83659417	          5.19247918	          1.51021338	          0.93783412	         -0.00147572	         30.11086055	         -1.61188751	         -4.61121785	        -15.36932421	          0.59261074	          0.11578579	        -14.25439593	         -3.38692625	         -3.84410692	        -16.92428421	          7.92429486	         36.00054077	        -12.26932078	          0.21967071	         -5.05193431	          0.02610183	          0.09084168	          0.02365193	          0.14746898	          0.29887794	          0.04758735	          0.04788324	          0.10948789	          0.03762719	          0.01809394	          0.12034638	          0.01000889	          0.01000369	          0.57057641	          0.08240331	          0.01000544	          0.01000553	          0.01730158	          0.14410972	          0.03549678	          0.08100818	          0.01003038	          0.01017087	          0.01001226	          0.01000783	          0.05713485	          0.17697654	          0.01000154	
          1.37156370	         -3.79559673	         -0.85237817	          5.16922725	          1.52819900	          0.93808887	         -0.00013311	         29.84182683	         -1.50377276	         -4.72275477	        -16.75357923	          0.50970617	          0.06798752	        -13.62920394	         -3.65628823	         -4.20891762	        -19.71024065	          6.50183312	         37.67166877	        -11.86595664	          0.64887918	         -5.20959783	          0.02144053	          0.07460105	          0.01942373	          0.16352287	          0.31760276	          0.05032134	          0.03934169	          0.11450106	          0.03090034	          0.01486125	          0.15161032	          0.01000870	          0.01000288	          0.54773894	          0.10075584	          0.01000738	          0.01000733	          0.01420857	          0.20111158	          0.05033225	          0.06653212	          0.01000274	          0.01010373	          0.01000549	          0.01000211	          0.04692023	          0.14533597	          0.01000276	
